<?xml version="1.0" standalone="no"?>
<!DOCTYPE svg PUBLIC "-//W3C//DTD SVG 20010904//EN"
 "http://www.w3.org/TR/2001/REC-SVG-20010904/DTD/svg10.dtd">
<svg version="1.0" xmlns="http://www.w3.org/2000/svg"
 width="585.000000pt" height="585.000000pt" viewBox="0 0 585.000000 585.000000"
 preserveAspectRatio="xMidYMid meet">
<metadata>
Created by potrace 1.11, written by Peter Selinger 2001-2013
</metadata>
<g transform="translate(0.000000,585.000000) scale(0.100000,-0.100000)"
fill="#000000" stroke="none">
<path d="M2640 5839 c-36 -4 -85 -11 -110 -14 -433 -55 -888 -233 -1255 -490
-49 -35 -99 -71 -110 -82 -12 -10 -45 -38 -75 -63 -248 -203 -477 -469 -642
-748 -71 -119 -145 -262 -177 -343 -7 -19 -20 -49 -28 -68 -31 -68 -85 -239
-117 -371 -33 -131 -39 -160 -51 -245 -4 -22 -8 -50 -10 -62 -26 -161 -27
-586 -1 -763 2 -14 7 -45 11 -70 29 -197 100 -450 181 -646 64 -155 177 -373
201 -387 16 -9 53 13 53 32 0 10 -29 75 -65 143 -97 185 -147 311 -218 543 -9
28 -18 61 -21 75 -3 14 -15 68 -26 120 -11 52 -23 115 -26 140 -3 25 -7 52 -9
60 -18 67 -27 480 -12 631 22 242 104 579 188 776 11 26 28 66 37 88 37 90
147 293 216 398 108 166 222 305 380 462 l141 140 6 -61 c4 -33 17 -77 28 -98
12 -20 21 -40 21 -44 0 -4 -48 -56 -106 -117 -96 -99 -267 -315 -322 -405 -22
-37 -89 -155 -129 -229 -29 -52 -113 -252 -141 -336 -26 -76 -67 -228 -87
-322 -19 -94 -21 -106 -42 -278 -13 -110 -6 -453 11 -580 99 -704 465 -1326
1031 -1749 340 -254 714 -412 1150 -485 124 -21 206 -26 405 -26 225 0 335 9
458 36 23 5 59 12 80 15 20 3 40 8 45 11 4 2 7 2 7 -1 0 -3 -15 -12 -33 -20
-50 -20 -95 -74 -109 -129 -14 -57 -9 -56 -228 -74 -147 -12 -474 -6 -567 11
-10 2 -43 7 -73 11 -61 8 -54 7 -165 30 -411 86 -802 273 -1159 555 -106 83
-256 231 -369 363 -56 65 -110 120 -123 123 -57 14 -113 -38 -100 -92 9 -35
150 -201 276 -326 279 -274 573 -470 932 -622 152 -64 390 -138 513 -160 29
-6 50 -10 105 -21 33 -6 73 -12 140 -20 30 -3 73 -9 95 -12 130 -18 497 -7
717 22 41 5 52 2 90 -25 84 -59 152 -52 448 47 557 187 1081 564 1434 1032
175 233 300 451 412 721 41 98 48 125 48 186 1 61 -3 76 -27 112 -15 23 -46
54 -69 69 -36 24 -52 28 -112 28 -60 0 -77 -4 -114 -28 -24 -16 -52 -44 -64
-63 -27 -45 -30 -43 -12 8 13 39 55 191 68 249 5 24 11 27 71 32 126 12 225
105 250 237 10 53 14 455 5 540 -17 165 -21 190 -41 291 -11 57 -22 115 -25
129 -3 14 -8 34 -11 45 -4 11 -8 25 -9 32 -8 46 -90 289 -124 368 -112 260
-248 487 -432 717 -429 539 -1089 919 -1773 1023 -60 9 -121 19 -135 22 -44 9
-533 11 -600 2z m2737 -3761 c-3 -8 -6 -5 -6 6 -1 11 2 17 5 13 3 -3 4 -12 1
-19z m-44 -113 c-3 -9 -8 -14 -10 -11 -3 3 -2 9 2 15 9 16 15 13 8 -4z m-22
-48 c-10 -9 -11 -8 -5 6 3 10 9 15 12 12 3 -3 0 -11 -7 -18z m-38 -82 c-3 -9
-8 -14 -10 -11 -3 3 -2 9 2 15 9 16 15 13 8 -4z m-50 -100 c-3 -9 -8 -14 -10
-11 -3 3 -2 9 2 15 9 16 15 13 8 -4z m-143 -239 c0 -2 -8 -10 -17 -17 -16 -13
-17 -12 -4 4 13 16 21 21 21 13z m-80 -110 c0 -2 -8 -10 -17 -17 -16 -13 -17
-12 -4 4 13 16 21 21 21 13z m-100 -120 c0 -2 -8 -10 -17 -17 -16 -13 -17 -12
-4 4 13 16 21 21 21 13z m-70 -80 c0 -2 -8 -10 -17 -17 -16 -13 -17 -12 -4 4
13 16 21 21 21 13z m-40 -39 c0 -2 -10 -12 -22 -23 l-23 -19 19 23 c18 21 26
27 26 19z m-50 -51 c0 -2 -8 -10 -17 -17 -16 -13 -17 -12 -4 4 13 16 21 21 21
13z m-900 -576 c-8 -5 -19 -10 -25 -10 -5 0 -3 5 5 10 8 5 20 10 25 10 6 0 3
-5 -5 -10z m-195 -60 c-3 -5 -12 -10 -18 -10 -7 0 -6 4 3 10 19 12 23 12 15 0z"/>
</g>
</svg>
