<svg data-name="Camada 1" xmlns="http://www.w3.org/2000/svg" viewBox="0 0 48 48" width="48" height="48"><g class="nc-icon-wrapper"><defs><linearGradient id="a" x1=".94" y1="25.63" x2="44.94" y2="25.63" gradientUnits="userSpaceOnUse"><stop offset="0" stop-color="#fabe44"></stop><stop offset="1" stop-color="#f7a829"></stop></linearGradient></defs><title>bgm-busyellow-4x.svg</title><path class="cls-1" d="M41.85 11H4a3.08 3.08 0 0 0-3.06 3.08v19.5A3.08 3.08 0 0 0 4 36.67h1.61v.12a3.46 3.46 0 0 0 6.92 0v-.12h23V37a2.92 2.92 0 1 0 5.83 0v-.33h.61a3.09 3.09 0 0 0 3.09-3.09v-19.5A3.09 3.09 0 0 0 41.85 11z" fill="url(#a)"></path><path class="cls-2" d="M48 23.13h-1.9v-8.9A4.09 4.09 0 0 0 42.17 10H4a4.09 4.09 0 0 0-3.9 4.23v19.42A4.09 4.09 0 0 0 4 37.88h1.24a4 4 0 0 0 7.72 0h21.28a4 4 0 0 0 7.72 0h.21a4.09 4.09 0 0 0 3.93-4.23V31.5H48zm-45.9-8.9A2.11 2.11 0 0 1 4 12h29.1v11h-31zm42 19.42a2.1 2.1 0 0 1-1.93 2.23H42a4 4 0 0 0-7.72 0H13a4 4 0 0 0-7.72 0H4a2.11 2.11 0 0 1-1.9-2.23V25h42zm0-10.65h-9V12h7.07a2.1 2.1 0 0 1 1.93 2.23z" fill="#fff"></path></g></svg>