<svg data-name="Camada 1" xmlns="http://www.w3.org/2000/svg" viewBox="0 0 48 48" width="48" height="48"><g class="nc-icon-wrapper"><title>bgm-busblue-4x.svg</title><path class="cls-1" d="M41.75 10.37H3.92a3.08 3.08 0 0 0-3.08 3.08V33a3.08 3.08 0 0 0 3.08 3h1.6a.5.5 0 0 0 0 .12 3.46 3.46 0 1 0 6.92 0V36h23v.33a2.92 2.92 0 1 0 5.83 0V36h.61a3.09 3.09 0 0 0 2.96-3V13.45a3.08 3.08 0 0 0-3.09-3.08z" fill="#1db3e8"></path><path class="cls-2" d="M47.9 22.5H46v-8.9a4.09 4.09 0 0 0-3.93-4.23H3.94A4.09 4.09 0 0 0 0 13.6V33a4.09 4.09 0 0 0 3.94 4.23h1.2a4 4 0 0 0 7.72 0h21.28a4 4 0 0 0 7.72 0h.21A4.09 4.09 0 0 0 46 33v-2.13h1.9zM2 13.6a2.11 2.11 0 0 1 1.94-2.23H33v11H2zM44 33a2.09 2.09 0 0 1-1.93 2.23h-.21a4 4 0 0 0-7.72 0H12.86a4 4 0 0 0-7.72 0h-1.2A2.11 2.11 0 0 1 2 33v-8.63h42zm0-10.65h-9v-11h7.07A2.1 2.1 0 0 1 44 13.6z" fill="#fff"></path></g></svg>