<svg data-name="Camada 1" xmlns="http://www.w3.org/2000/svg" viewBox="0 0 48 48" width="48" height="48"><g class="nc-icon-wrapper"><defs><linearGradient id="a" x1=".84" y1="25.41" x2="44.84" y2="25.41" gradientUnits="userSpaceOnUse"><stop offset="0" stop-color="#f26363"></stop><stop offset="1" stop-color="#d0405e"></stop></linearGradient></defs><title>bgm-busred-4x.svg</title><path class="cls-1" d="M41.75 10.79H3.92a3.08 3.08 0 0 0-3.08 3.08v19.5a3.08 3.08 0 0 0 3.08 3.08h1.6a.69.69 0 0 0 0 .13 3.46 3.46 0 1 0 6.92 0v-.13h23v.34a2.92 2.92 0 0 0 5.83 0v-.34h.61a3.08 3.08 0 0 0 3.09-3.08v-19.5a3.08 3.08 0 0 0-3.22-3.08z" fill="url(#a)"></path><path class="cls-2" d="M47.9 22.91H46V14a4.09 4.09 0 0 0-3.93-4.23H3.94A4.09 4.09 0 0 0 0 14v19.43a4.1 4.1 0 0 0 3.94 4.24h1.2a4 4 0 0 0 7.72 0h21.28a4 4 0 0 0 7.72 0h.21A4.1 4.1 0 0 0 46 33.43v-2.14h1.9zM2 14a2.1 2.1 0 0 1 1.94-2.23H33v11H2zm42 19.43a2.1 2.1 0 0 1-1.93 2.24h-.21a4 4 0 0 0-7.72 0H12.86a4 4 0 0 0-7.72 0h-1.2A2.11 2.11 0 0 1 2 33.43v-8.64h42zm0-10.64h-9v-11h7.07A2.09 2.09 0 0 1 44 14z" fill="#fff"></path></g></svg>