<svg data-name="Camada 1" xmlns="http://www.w3.org/2000/svg" viewBox="0 0 48 48" width="48" height="48"><g class="nc-icon-wrapper"><defs><linearGradient id="a" x1=".84" y1="25.46" x2="44.84" y2="25.46" gradientUnits="userSpaceOnUse"><stop offset="0" stop-color="#b5dd70"></stop><stop offset="1" stop-color="#7a9e38"></stop></linearGradient></defs><title>bgm-busgreen-4x.svg</title><path class="cls-1" d="M41.75 10.83H3.92a3.08 3.08 0 0 0-3.08 3.09v19.5a3.08 3.08 0 0 0 3.08 3.08h1.6a.5.5 0 0 0 0 .12 3.46 3.46 0 0 0 6.92 0v-.12h23v.33a2.92 2.92 0 1 0 5.83 0v-.33h.61a3.08 3.08 0 0 0 3.09-3.08v-19.5a3.09 3.09 0 0 0-3.22-3.09z" fill="url(#a)"></path><path class="cls-2" d="M47.9 23H46v-8.93a4.1 4.1 0 0 0-3.93-4.24H3.94A4.1 4.1 0 0 0 0 14.07v19.41a4.09 4.09 0 0 0 3.94 4.23h1.2a4 4 0 0 0 7.72 0h21.28a4 4 0 0 0 7.72 0h.21A4.09 4.09 0 0 0 46 33.48v-2.14h1.9zM2 14.07a2.11 2.11 0 0 1 1.94-2.24H33v11H2zm42 19.41a2.09 2.09 0 0 1-1.93 2.23h-.21a4 4 0 0 0-7.72 0H12.86a4 4 0 0 0-7.72 0h-1.2A2.1 2.1 0 0 1 2 33.48v-8.65h42zm0-10.65h-9v-11h7.07A2.1 2.1 0 0 1 44 14.07z" fill="#fff"></path></g></svg>