<svg xmlns="http://www.w3.org/2000/svg" style="display: none;"><symbol id="nc-small-right" viewBox="0 0 64 64"><title>nc-small-right</title><g><g class="nc-icon-wrapper"><polyline fill="none" stroke="currentColor" stroke-linecap="square" stroke-miterlimit="10" points="26,20 38,32 26,44 " stroke-linejoin="miter"/></g></g></symbol><symbol id="nc-bus" viewBox="0 0 64 64"><title>nc-bus</title><g><g class="nc-icon-wrapper"><line data-cap="butt" fill="none" stroke="currentColor" stroke-miterlimit="10" x1="2" y1="29" x2="62" y2="29" stroke-linecap="butt" stroke-linejoin="miter"/> <line fill="none" stroke="currentColor" stroke-linecap="square" stroke-miterlimit="10" x1="44" y1="45" x2="20" y2="45" stroke-linejoin="miter"/> <path fill="none" stroke="currentColor" stroke-linecap="square" stroke-miterlimit="10" d="M8,45H2V17 c0-2.209,1.791-4,4-4h52c2.209,0,4,1.791,4,4v28h-6" stroke-linejoin="miter"/> <circle data-color="color-2" fill="none" stroke-linecap="square" stroke-miterlimit="10" cx="14" cy="45" r="6" stroke-linejoin="miter"/> <circle data-color="color-2" fill="none" stroke-linecap="square" stroke-miterlimit="10" cx="50" cy="45" r="6" stroke-linejoin="miter"/> <line fill="none" stroke="currentColor" stroke-miterlimit="10" x1="17" y1="13" x2="17" y2="29"/> <line fill="none" stroke="currentColor" stroke-miterlimit="10" x1="32" y1="13" x2="32" y2="29"/> <line fill="none" stroke="currentColor" stroke-miterlimit="10" x1="47" y1="13" x2="47" y2="29"/></g></g></symbol><symbol id="nc-settings-tool-67" viewBox="0 0 48 48"><title>nc-settings-tool-67</title><g><g class="nc-icon-wrapper"><path fill="none" stroke="currentColor" stroke-linecap="square" stroke-miterlimit="10" d="M45.5,9.6l-5.9,5.9 l-7.1-7.1l5.9-5.9C37,2.1,35.6,1.9,34,2c-5.6,0.5-10.1,5.5-10,11.1c0,1.1,0.2,2.2,0.5,3.2l-19.2,17c-2.9,2.5-3,7-0.3,9.7l0,0 c2.7,2.7,7.1,2.6,9.7-0.3l17-19.2c1.7,0.5,3.6,0.7,5.6,0.3c4-0.8,7.3-3.8,8.4-7.7C46.2,13.8,46.1,11.6,45.5,9.6z" stroke-linejoin="miter"/></g></g></symbol><symbol id="nc-cone" viewBox="0 0 64 64"><title>nc-cone</title><g><g class="nc-icon-wrapper"><line data-cap="butt" data-color="color-2" fill="none" stroke-miterlimit="10" x1="20" y1="26" x2="44" y2="26" stroke-linejoin="miter" stroke-linecap="butt"/> <line data-cap="butt" data-color="color-2" fill="none" stroke-miterlimit="10" x1="15.3" y1="40" x2="48.7" y2="40" stroke-linejoin="miter" stroke-linecap="butt"/> <polyline data-cap="butt" fill="none" stroke="currentColor" stroke-miterlimit="10" points="8,62 28,2 36,2 56,62 " stroke-linejoin="miter" stroke-linecap="butt"/> <line fill="none" stroke="currentColor" stroke-linecap="square" stroke-miterlimit="10" x1="2" y1="62" x2="62" y2="62" stroke-linejoin="miter"/></g></g></symbol><symbol id="nc-triangle-right-17" viewBox="0 0 64 64"><title>nc-triangle-right-17</title><g><g class="nc-icon-wrapper"><polygon fill="none" stroke="currentColor" stroke-linecap="square" stroke-miterlimit="10" points="13,59 13,5 51,32 " stroke-linejoin="miter"/></g></g></symbol><symbol id="nc-button-power" viewBox="0 0 64 64"><title>nc-button-power</title><g><g class="nc-icon-wrapper"><path fill="none" stroke="currentColor" stroke-linecap="square" stroke-miterlimit="10" d="M51.002,11.092 C57.127,16.409,61,24.252,61,33c0,16.016-12.984,29-29,29S3,49.016,3,33c0-8.749,3.874-16.592,10-21.909" stroke-linejoin="miter"/> <line data-color="color-2" fill="none" stroke-linecap="square" stroke-miterlimit="10" x1="32" y1="2" x2="32" y2="30" stroke-linejoin="miter"/></g></g></symbol><symbol id="nc-a-add" viewBox="0 0 32 32"><title>nc-a-add</title><g><g class="nc-icon-wrapper"><path fill="none" stroke="currentColor" stroke-linecap="square" stroke-miterlimit="10" d="M19,20.334 C17.549,20.129,15.886,20,14,20c-5.57,0-9.247,1.165-11.227,2.043C1.69,22.524,1,23.598,1,24.783V30h22" stroke-linejoin="miter"/> <path fill="none" stroke="currentColor" stroke-linecap="square" stroke-miterlimit="10" d="M7,8c0-3.866,3.134-7,7-7 s7,3.134,7,7s-3.134,8-7,8S7,11.866,7,8z" stroke-linejoin="miter"/> <line data-color="color-2" fill="none" stroke-linecap="square" stroke-miterlimit="10" x1="27" y1="19" x2="27" y2="27" stroke-linejoin="miter"/> <line data-color="color-2" fill="none" stroke-linecap="square" stroke-miterlimit="10" x1="23" y1="23" x2="31" y2="23" stroke-linejoin="miter"/></g></g></symbol><symbol id="nc-back-80" viewBox="0 0 64 64"><title>nc-back-80</title><g><g class="nc-icon-wrapper"><path data-cap="butt" data-color="color-2" fill="none" stroke-miterlimit="10" d="M3,43h40.5 C53.717,43,62,34.717,62,24.5v0C62,14.283,53.717,6,43.5,6H19" stroke-linejoin="miter" stroke-linecap="butt"/> <polyline fill="none" stroke="currentColor" stroke-linecap="square" stroke-miterlimit="10" points="18,28 3,43 18,58 " stroke-linejoin="miter"/></g></g></symbol><symbol id="nc-fullscreen-double-74" viewBox="0 0 64 64"><title>nc-fullscreen-double-74</title><g><g class="nc-icon-wrapper"><line data-cap="butt" data-color="color-2" fill="none" stroke-miterlimit="10" x1="4" y1="60" x2="24" y2="40" stroke-linejoin="miter" stroke-linecap="butt"/> <line data-cap="butt" fill="none" stroke="currentColor" stroke-miterlimit="10" x1="60" y1="4" x2="40" y2="24" stroke-linejoin="miter" stroke-linecap="butt"/> <polyline fill="none" stroke="currentColor" stroke-linecap="square" stroke-miterlimit="10" points="40,4 60,4 60,24 " stroke-linejoin="miter"/> <polyline data-color="color-2" fill="none" stroke-linecap="square" stroke-miterlimit="10" points=" 24,60 4,60 4,40 " stroke-linejoin="miter"/></g></g></symbol><symbol id="nc-small-remove" viewBox="0 0 64 64"><title>nc-small-remove</title><g><g class="nc-icon-wrapper"><line fill="none" stroke="currentColor" stroke-linecap="square" stroke-miterlimit="10" x1="44" y1="20" x2="20" y2="44" stroke-linejoin="miter"/> <line fill="none" stroke="currentColor" stroke-linecap="square" stroke-miterlimit="10" x1="44" y1="44" x2="20" y2="20" stroke-linejoin="miter"/></g></g></symbol><symbol id="nc-disk-2" viewBox="0 0 48 48"><title>nc-disk-2</title><g><g class="nc-icon-wrapper"><polyline data-color="color-2" fill="none" stroke-linecap="square" stroke-miterlimit="10" points=" 30,2 30,16 10,16 10,2 " stroke-linejoin="miter"/> <line data-color="color-2" fill="none" stroke-linecap="square" stroke-miterlimit="10" x1="24" y1="8" x2="24" y2="10" stroke-linejoin="miter"/> <polyline data-color="color-2" fill="none" stroke-linecap="square" stroke-miterlimit="10" points=" 10,41 10,28 38,28 38,41 " stroke-linejoin="miter"/> <polygon fill="none" stroke="currentColor" stroke-linecap="square" stroke-miterlimit="10" points="46,46 2,46 2,2 36,2 46,16 " stroke-linejoin="miter"/></g></g></symbol><symbol id="nc-button-pause" viewBox="0 0 48 48"><title>nc-button-pause</title><g><g class="nc-icon-wrapper"><rect x="6" y="4" fill="none" stroke="currentColor" stroke-linecap="square" stroke-miterlimit="10" width="12" height="40" stroke-linejoin="miter"/> <rect x="30" y="4" fill="none" stroke="currentColor" stroke-linecap="square" stroke-miterlimit="10" width="12" height="40" stroke-linejoin="miter"/></g></g></symbol><symbol id="nc-check-2" viewBox="0 0 24 24"><title>nc-check-2</title><g><g class="nc-icon-wrapper"><polyline fill="none" stroke="currentColor" stroke-linecap="square" stroke-miterlimit="10" points="2,12 9,19 22,6 
	" stroke-linejoin="miter"/></g></g></symbol><symbol id="nc-alert" viewBox="0 0 64 64"><title>nc-alert</title><g><g class="nc-icon-wrapper"><polygon fill="none" stroke="currentColor" stroke-linecap="square" stroke-miterlimit="10" points="4,60 32,8 60,60 " stroke-linejoin="miter"/> <line data-color="color-2" fill="none" stroke-linecap="square" stroke-miterlimit="10" x1="32" y1="28" x2="32" y2="43" stroke-linejoin="miter"/> <circle data-color="color-2" fill="none" stroke-linecap="square" stroke-miterlimit="10" cx="32" cy="50" r="1" stroke-linejoin="miter"/> <circle data-color="color-2" data-stroke="none" cx="32" cy="50" r="1" stroke-linejoin="miter" stroke-linecap="square" fill="currentColor" stroke="none"/></g></g></symbol></svg>