<?xml version="1.0" encoding="utf-8"?>
<!-- Generator: Adobe Illustrator 21.1.0, SVG Export Plug-In . SVG Version: 6.00 Build 0)  -->
<svg version="1.1" id="Camada_1" xmlns="http://www.w3.org/2000/svg" xmlns:xlink="http://www.w3.org/1999/xlink" x="0px" y="0px"
	 viewBox="0 0 159.1 27.9" style="enable-background:new 0 0 159.1 27.9;" xml:space="preserve">
<style type="text/css">
	.st0{fill:#FFFFFF;}
</style>
<g>
	<g>
		<path class="st0" d="M46.9,8.5h5.8c2.9,0,3.7,2,3.4,4c-0.2,1.5-1.1,2.6-2.4,2.8c1,0.2,1.9,1.5,1.7,3.5c-0.4,3-1.9,3.8-4.9,3.8
			h-5.8L46.9,8.5z M50.8,20.3c0.8,0,1.6-0.4,1.9-1.9c0.2-1-0.1-2-1.2-2h-3l-0.6,3.9H50.8z M51.6,14.1c1,0,1.6-0.6,1.7-1.6
			c0.2-1.3-0.4-1.6-1.2-1.6h-2.9l-0.5,3.2H51.6z"/>
		<path class="st0" d="M56.7,24.3h4.4c1,0,1.7-0.6,1.9-1.8l0-0.5c-0.9,0.5-1.8,0.7-2.7,0.7c-3,0-3.6-2.3-3-5.8
			c0.5-3.5,2.2-4.7,4.5-4.7c2.1,0,4.4,0.3,5.4,0.6l-1.5,10c-0.4,2.7-2,4.1-4.7,3.8l-4.6-0.5L56.7,24.3z M61.1,20.6
			c0.9,0,1.3-0.1,2.2-0.4l0.9-5.9h-2.1c-1.6,0-1.9,1.9-2.1,3C59.8,19.1,59.6,20.6,61.1,20.6z"/>
		<path class="st0" d="M69.7,12.4h2.2l0.4,1.1c1-0.7,1.8-1.3,3.4-1.3c1.3,0,2.1,0.6,2.4,1.4c1-0.7,2.3-1.4,4-1.4
			c2.2,0,2.8,1.6,2.5,3.6l-1.1,6.8h-2.7l1.1-6.9c0.2-1-0.3-1.4-0.9-1.4c-1.1,0-1.8,0.2-2.6,0.8c0,0.1-0.1,0.5-0.1,0.6L77,22.7h-2.7
			l1.1-6.9c0.2-1-0.3-1.4-0.9-1.4c-1.1,0-1.7,0.3-2.6,0.9l-1.2,7.4H68L69.7,12.4z"/>
		<path class="st0" d="M88.4,8.5h6c2.1,0,3.6,1.3,3.2,4.7c-0.5,3.5-2.2,3.8-2.9,3.9l2,5.6h-3.1l-1.7-5.4l-2.2-0.2l-0.9,5.6h-2.7
			L88.4,8.5z M93.1,15c1,0,1.6-0.6,1.8-2.1c0.2-1.6-0.2-2-1.1-2h-3L90.1,15H93.1z"/>
		<path class="st0" d="M104.1,12.2c3.5,0,4.5,1.8,3.9,5.7c-0.6,3.8-1.9,4.8-5.4,4.8c-3.5,0-4.6-1.7-4-5.4
			C99.2,13.2,100.6,12.2,104.1,12.2z M102.8,20.6c1.5,0,2-0.2,2.4-2.9c0.4-2.7,0.2-3.2-1.5-3.2c-1.6,0-2,0.4-2.5,3.2
			C100.8,20.3,101.3,20.6,102.8,20.6z"/>
		<path class="st0" d="M113.9,12.2c0.9,0,2.2,0.2,3,0.7l0.7-4.5h2.7l-2.3,14.3h-2.2l-0.3-1c-0.7,0.5-2,1.2-3.2,1.2
			c-2.5,0-3.2-2.7-2.6-5.7C110.2,14.3,111.1,12.2,113.9,12.2z M113.3,20.5c1,0,1.9-0.3,2.5-0.6l0.8-5.1c-0.7-0.3-1.4-0.4-2.3-0.4
			c-0.8,0-1.4,0.5-1.8,3.1C112.1,19.7,112.4,20.5,113.3,20.5z"/>
		<path class="st0" d="M126.5,12.2c3.5,0,4.5,1.8,3.9,5.7c-0.6,3.8-1.9,4.8-5.4,4.8c-3.5,0-4.6-1.7-4-5.4
			C121.6,13.2,123,12.2,126.5,12.2z M125.2,20.6c1.5,0,2-0.2,2.4-2.9c0.4-2.7,0.2-3.2-1.5-3.2c-1.6,0-2,0.4-2.5,3.2
			C123.3,20.3,123.8,20.6,125.2,20.6z"/>
		<path class="st0" d="M132.3,12.9l1.7-0.6l0.9-2.9h2.3l-0.5,2.9h2.3l-0.3,2.1h-2.3l-0.6,4.1c-0.3,1.6,0,1.8,0.6,2.1
			c0,0,1,0.4,1.1,0.4l-0.3,1.7h-1.9c-1.7,0-2.8-1.1-2.4-3.7l0.7-4.6H132L132.3,12.9z"/>
		<path class="st0" d="M144.9,12.2c2.2,0,4.2,0.6,4,3c-0.3,4.7-6,3.8-6.7,3.5c-0.3,1.6,0.1,2,1.5,2c1.1,0,3-0.1,4.2-0.3l-0.3,1.9
			c-1.6,0.5-3.2,0.7-5.4,0.6c-2.5-0.1-3.3-2.2-2.6-6C140.3,13.7,141.1,12.2,144.9,12.2z M146.2,15.5c0.2-1-0.4-1.2-1.4-1.1
			c-1.8,0-2,1.2-2.3,2.5C142.5,16.9,145.8,17.4,146.2,15.5z"/>
		<path class="st0" d="M154.5,12.2c1,0,3.2,0.2,4.7,0.6l-0.3,1.7c0,0-1.8-0.1-3.6-0.1c-1.2,0-1.8,0.1-2.3,3.2c-0.4,2.6,0,3,1.4,3
			c1.8,0,3.7-0.2,3.7-0.2l-0.3,1.7c-1.5,0.5-2.8,0.7-4.9,0.6c-2,0-3.3-1.6-2.6-5.6C151,12.8,152.6,12.2,154.5,12.2z"/>
	</g>
	<g>
		<path class="st0" d="M25.2,2l1.8-1.2c-1.2-0.3-2.6-0.6-3.9-0.7c-2-0.2-4.2-0.1-6.4,0.3c-2.2,0.4-4.2,1-6.1,1.9
			c-1.9,0.8-3.6,1.9-5,3.1C4.1,6.7,2.9,8.1,1.9,9.6c-1,1.6-1.6,3.3-1.8,5c-0.1,1.1-0.1,2.2,0.1,3.2l2.6-1.7L25.2,2z"/>
		<path class="st0" d="M30,4.1l1.4-1.4c-0.4-0.3-0.9-0.5-1.4-0.7l-1.6,1.3L7,21.6l-2.9,2.5c0.1,0.1,0.2,0.1,0.2,0.2
			c1.1,0.8,2.3,1.6,3.7,2.1l2.4-2.5L30,4.1z"/>
		<path class="st0" d="M36.9,9.1c-0.6-1.8-1.6-3.4-3-4.7L32.8,6L18.9,26.4l-1,1.4c0.3,0,0.6,0,0.9-0.1c3-0.3,5.9-1.2,8.4-2.4
			c2.5-1.2,4.7-2.8,6.3-4.6c1.6-1.8,2.8-3.7,3.3-5.8C37.4,13,37.4,11,36.9,9.1z"/>
	</g>
</g>
</svg>
